<svg xmlns="http://www.w3.org/2000/svg" xmlns:xlink="http://www.w3.org/1999/xlink" width="400" zoomAndPan="magnify" viewBox="0 0 300 149.999998" height="200" preserveAspectRatio="xMidYMid meet" version="1.0"><defs><g/><clipPath id="4c9fa58cf7"><rect x="0" width="300" y="0" height="150"/></clipPath></defs><g transform="matrix(1, 0, 0, 1, 0, -0.000000000000007527)"><g clip-path="url(#4c9fa58cf7)"><g fill="#7dd3a0" fill-opacity="1"><g transform="translate(-1.15178, 121.892792)"><g><path d="M 30.09375 -39.484375 L 25.9375 -37.953125 L 30.09375 -36.5 L 63.53125 -25.328125 L 63.53125 -8.78125 L 9.515625 -31.1875 L 9.515625 -44.921875 L 63.53125 -67.3125 L 63.53125 -50.828125 Z M 30.09375 -39.484375 "/></g></g></g><g fill="#7dd3a0" fill-opacity="1"><g transform="translate(73.842485, 121.892792)"><g><path d="M 54.125 -23.1875 C 54.125 -24.78125 53.847656 -26.265625 53.296875 -27.640625 C 52.753906 -29.023438 51.820312 -30.316406 50.5 -31.515625 C 49.175781 -32.722656 47.445312 -33.820312 45.3125 -34.8125 C 43.175781 -35.8125 40.519531 -36.738281 37.34375 -37.59375 C 33.476562 -38.644531 29.785156 -39.960938 26.265625 -41.546875 C 22.753906 -43.140625 19.65625 -45.054688 16.96875 -47.296875 C 14.28125 -49.535156 12.128906 -52.140625 10.515625 -55.109375 C 8.910156 -58.078125 8.109375 -61.492188 8.109375 -65.359375 C 8.109375 -69.097656 8.898438 -72.492188 10.484375 -75.546875 C 12.078125 -78.597656 14.273438 -81.203125 17.078125 -83.359375 C 19.890625 -85.515625 23.207031 -87.171875 27.03125 -88.328125 C 30.851562 -89.492188 35.003906 -90.078125 39.484375 -90.078125 C 44.117188 -90.078125 48.359375 -89.40625 52.203125 -88.0625 C 56.046875 -86.71875 59.351562 -84.832031 62.125 -82.40625 C 64.894531 -79.988281 67.050781 -77.113281 68.59375 -73.78125 C 70.132812 -70.445312 70.90625 -66.785156 70.90625 -62.796875 L 54.1875 -62.796875 C 54.113281 -64.785156 53.757812 -66.613281 53.125 -68.28125 C 52.488281 -69.957031 51.550781 -71.394531 50.3125 -72.59375 C 49.070312 -73.789062 47.523438 -74.722656 45.671875 -75.390625 C 43.828125 -76.066406 41.660156 -76.40625 39.171875 -76.40625 C 36.898438 -76.40625 34.878906 -76.128906 33.109375 -75.578125 C 31.335938 -75.035156 29.84375 -74.265625 28.625 -73.265625 C 27.40625 -72.265625 26.476562 -71.082031 25.84375 -69.71875 C 25.21875 -68.351562 24.90625 -66.878906 24.90625 -65.296875 C 24.90625 -63.628906 25.320312 -62.125 26.15625 -60.78125 C 26.988281 -59.4375 28.195312 -58.222656 29.78125 -57.140625 C 31.363281 -56.066406 33.285156 -55.082031 35.546875 -54.1875 C 37.804688 -53.289062 40.359375 -52.457031 43.203125 -51.6875 C 47.273438 -50.507812 51.019531 -49.066406 54.4375 -47.359375 C 57.851562 -45.648438 60.789062 -43.625 63.25 -41.28125 C 65.71875 -38.945312 67.628906 -36.285156 68.984375 -33.296875 C 70.347656 -30.304688 71.03125 -26.976562 71.03125 -23.3125 C 71.03125 -19.40625 70.25 -15.9375 68.6875 -12.90625 C 67.125 -9.875 64.957031 -7.3125 62.1875 -5.21875 C 59.414062 -3.125 56.117188 -1.535156 52.296875 -0.453125 C 48.472656 0.617188 44.304688 1.15625 39.796875 1.15625 C 36.984375 1.15625 34.179688 0.898438 31.390625 0.390625 C 28.609375 -0.109375 25.945312 -0.890625 23.40625 -1.953125 C 20.863281 -3.015625 18.492188 -4.335938 16.296875 -5.921875 C 14.097656 -7.503906 12.191406 -9.351562 10.578125 -11.46875 C 8.972656 -13.582031 7.710938 -15.984375 6.796875 -18.671875 C 5.890625 -21.359375 5.4375 -24.328125 5.4375 -27.578125 L 22.28125 -27.578125 C 22.351562 -24.898438 22.816406 -22.601562 23.671875 -20.6875 C 24.523438 -18.769531 25.710938 -17.203125 27.234375 -15.984375 C 28.765625 -14.765625 30.597656 -13.867188 32.734375 -13.296875 C 34.867188 -12.734375 37.222656 -12.453125 39.796875 -12.453125 C 42.066406 -12.453125 44.085938 -12.710938 45.859375 -13.234375 C 47.628906 -13.765625 49.125 -14.5 50.34375 -15.4375 C 51.5625 -16.375 52.492188 -17.503906 53.140625 -18.828125 C 53.796875 -20.148438 54.125 -21.601562 54.125 -23.1875 Z M 54.125 -23.1875 "/></g></g></g><g fill="#7dd3a0" fill-opacity="1"><g transform="translate(148.83675, 121.892792)"><g><path d="M 29.234375 7.625 L 13.421875 7.625 L 46.6875 -88.859375 L 62.5 -88.859375 Z M 29.234375 7.625 "/></g></g></g><g fill="#7dd3a0" fill-opacity="1"><g transform="translate(223.831027, 121.892792)"><g><path d="M 9.828125 -50.890625 L 9.828125 -67.3125 L 64.75 -44.984375 L 64.75 -31.125 L 9.828125 -8.734375 L 9.828125 -25.203125 L 44.796875 -36.921875 L 48.515625 -38.140625 L 44.859375 -39.359375 Z M 9.828125 -50.890625 "/></g></g></g><g fill="#a78bfa" fill-opacity="1"><g transform="translate(1.151785, 123.505765)"><g><path d="M 30.09375 -39.484375 L 25.9375 -37.953125 L 30.09375 -36.5 L 63.53125 -25.328125 L 63.53125 -8.78125 L 9.515625 -31.1875 L 9.515625 -44.921875 L 63.53125 -67.3125 L 63.53125 -50.828125 Z M 30.09375 -39.484375 "/></g></g></g><g fill="#a78bfa" fill-opacity="1"><g transform="translate(76.14605, 123.505765)"><g><path d="M 54.125 -23.1875 C 54.125 -24.78125 53.847656 -26.265625 53.296875 -27.640625 C 52.753906 -29.023438 51.820312 -30.316406 50.5 -31.515625 C 49.175781 -32.722656 47.445312 -33.820312 45.3125 -34.8125 C 43.175781 -35.8125 40.519531 -36.738281 37.34375 -37.59375 C 33.476562 -38.644531 29.785156 -39.960938 26.265625 -41.546875 C 22.753906 -43.140625 19.65625 -45.054688 16.96875 -47.296875 C 14.28125 -49.535156 12.128906 -52.140625 10.515625 -55.109375 C 8.910156 -58.078125 8.109375 -61.492188 8.109375 -65.359375 C 8.109375 -69.097656 8.898438 -72.492188 10.484375 -75.546875 C 12.078125 -78.597656 14.273438 -81.203125 17.078125 -83.359375 C 19.890625 -85.515625 23.207031 -87.171875 27.03125 -88.328125 C 30.851562 -89.492188 35.003906 -90.078125 39.484375 -90.078125 C 44.117188 -90.078125 48.359375 -89.40625 52.203125 -88.0625 C 56.046875 -86.71875 59.351562 -84.832031 62.125 -82.40625 C 64.894531 -79.988281 67.050781 -77.113281 68.59375 -73.78125 C 70.132812 -70.445312 70.90625 -66.785156 70.90625 -62.796875 L 54.1875 -62.796875 C 54.113281 -64.785156 53.757812 -66.613281 53.125 -68.28125 C 52.488281 -69.957031 51.550781 -71.394531 50.3125 -72.59375 C 49.070312 -73.789062 47.523438 -74.722656 45.671875 -75.390625 C 43.828125 -76.066406 41.660156 -76.40625 39.171875 -76.40625 C 36.898438 -76.40625 34.878906 -76.128906 33.109375 -75.578125 C 31.335938 -75.035156 29.84375 -74.265625 28.625 -73.265625 C 27.40625 -72.265625 26.476562 -71.082031 25.84375 -69.71875 C 25.21875 -68.351562 24.90625 -66.878906 24.90625 -65.296875 C 24.90625 -63.628906 25.320312 -62.125 26.15625 -60.78125 C 26.988281 -59.4375 28.195312 -58.222656 29.78125 -57.140625 C 31.363281 -56.066406 33.285156 -55.082031 35.546875 -54.1875 C 37.804688 -53.289062 40.359375 -52.457031 43.203125 -51.6875 C 47.273438 -50.507812 51.019531 -49.066406 54.4375 -47.359375 C 57.851562 -45.648438 60.789062 -43.625 63.25 -41.28125 C 65.71875 -38.945312 67.628906 -36.285156 68.984375 -33.296875 C 70.347656 -30.304688 71.03125 -26.976562 71.03125 -23.3125 C 71.03125 -19.40625 70.25 -15.9375 68.6875 -12.90625 C 67.125 -9.875 64.957031 -7.3125 62.1875 -5.21875 C 59.414062 -3.125 56.117188 -1.535156 52.296875 -0.453125 C 48.472656 0.617188 44.304688 1.15625 39.796875 1.15625 C 36.984375 1.15625 34.179688 0.898438 31.390625 0.390625 C 28.609375 -0.109375 25.945312 -0.890625 23.40625 -1.953125 C 20.863281 -3.015625 18.492188 -4.335938 16.296875 -5.921875 C 14.097656 -7.503906 12.191406 -9.351562 10.578125 -11.46875 C 8.972656 -13.582031 7.710938 -15.984375 6.796875 -18.671875 C 5.890625 -21.359375 5.4375 -24.328125 5.4375 -27.578125 L 22.28125 -27.578125 C 22.351562 -24.898438 22.816406 -22.601562 23.671875 -20.6875 C 24.523438 -18.769531 25.710938 -17.203125 27.234375 -15.984375 C 28.765625 -14.765625 30.597656 -13.867188 32.734375 -13.296875 C 34.867188 -12.734375 37.222656 -12.453125 39.796875 -12.453125 C 42.066406 -12.453125 44.085938 -12.710938 45.859375 -13.234375 C 47.628906 -13.765625 49.125 -14.5 50.34375 -15.4375 C 51.5625 -16.375 52.492188 -17.503906 53.140625 -18.828125 C 53.796875 -20.148438 54.125 -21.601562 54.125 -23.1875 Z M 54.125 -23.1875 "/></g></g></g><g fill="#a78bfa" fill-opacity="1"><g transform="translate(151.140315, 123.505765)"><g><path d="M 29.234375 7.625 L 13.421875 7.625 L 46.6875 -88.859375 L 62.5 -88.859375 Z M 29.234375 7.625 "/></g></g></g><g fill="#a78bfa" fill-opacity="1"><g transform="translate(226.134592, 123.505765)"><g><path d="M 9.828125 -50.890625 L 9.828125 -67.3125 L 64.75 -44.984375 L 64.75 -31.125 L 9.828125 -8.734375 L 9.828125 -25.203125 L 44.796875 -36.921875 L 48.515625 -38.140625 L 44.859375 -39.359375 Z M 9.828125 -50.890625 "/></g></g></g><g fill="#5b7cfa" fill-opacity="1"><g transform="translate(0.0000025, 122.699279)"><g><path d="M 30.09375 -39.484375 L 25.9375 -37.953125 L 30.09375 -36.5 L 63.53125 -25.328125 L 63.53125 -8.78125 L 9.515625 -31.1875 L 9.515625 -44.921875 L 63.53125 -67.3125 L 63.53125 -50.828125 Z M 30.09375 -39.484375 "/></g></g></g><g fill="#5b7cfa" fill-opacity="1"><g transform="translate(74.994267, 122.699279)"><g><path d="M 54.125 -23.1875 C 54.125 -24.78125 53.847656 -26.265625 53.296875 -27.640625 C 52.753906 -29.023438 51.820312 -30.316406 50.5 -31.515625 C 49.175781 -32.722656 47.445312 -33.820312 45.3125 -34.8125 C 43.175781 -35.8125 40.519531 -36.738281 37.34375 -37.59375 C 33.476562 -38.644531 29.785156 -39.960938 26.265625 -41.546875 C 22.753906 -43.140625 19.65625 -45.054688 16.96875 -47.296875 C 14.28125 -49.535156 12.128906 -52.140625 10.515625 -55.109375 C 8.910156 -58.078125 8.109375 -61.492188 8.109375 -65.359375 C 8.109375 -69.097656 8.898438 -72.492188 10.484375 -75.546875 C 12.078125 -78.597656 14.273438 -81.203125 17.078125 -83.359375 C 19.890625 -85.515625 23.207031 -87.171875 27.03125 -88.328125 C 30.851562 -89.492188 35.003906 -90.078125 39.484375 -90.078125 C 44.117188 -90.078125 48.359375 -89.40625 52.203125 -88.0625 C 56.046875 -86.71875 59.351562 -84.832031 62.125 -82.40625 C 64.894531 -79.988281 67.050781 -77.113281 68.59375 -73.78125 C 70.132812 -70.445312 70.90625 -66.785156 70.90625 -62.796875 L 54.1875 -62.796875 C 54.113281 -64.785156 53.757812 -66.613281 53.125 -68.28125 C 52.488281 -69.957031 51.550781 -71.394531 50.3125 -72.59375 C 49.070312 -73.789062 47.523438 -74.722656 45.671875 -75.390625 C 43.828125 -76.066406 41.660156 -76.40625 39.171875 -76.40625 C 36.898438 -76.40625 34.878906 -76.128906 33.109375 -75.578125 C 31.335938 -75.035156 29.84375 -74.265625 28.625 -73.265625 C 27.40625 -72.265625 26.476562 -71.082031 25.84375 -69.71875 C 25.21875 -68.351562 24.90625 -66.878906 24.90625 -65.296875 C 24.90625 -63.628906 25.320312 -62.125 26.15625 -60.78125 C 26.988281 -59.4375 28.195312 -58.222656 29.78125 -57.140625 C 31.363281 -56.066406 33.285156 -55.082031 35.546875 -54.1875 C 37.804688 -53.289062 40.359375 -52.457031 43.203125 -51.6875 C 47.273438 -50.507812 51.019531 -49.066406 54.4375 -47.359375 C 57.851562 -45.648438 60.789062 -43.625 63.25 -41.28125 C 65.71875 -38.945312 67.628906 -36.285156 68.984375 -33.296875 C 70.347656 -30.304688 71.03125 -26.976562 71.03125 -23.3125 C 71.03125 -19.40625 70.25 -15.9375 68.6875 -12.90625 C 67.125 -9.875 64.957031 -7.3125 62.1875 -5.21875 C 59.414062 -3.125 56.117188 -1.535156 52.296875 -0.453125 C 48.472656 0.617188 44.304688 1.15625 39.796875 1.15625 C 36.984375 1.15625 34.179688 0.898438 31.390625 0.390625 C 28.609375 -0.109375 25.945312 -0.890625 23.40625 -1.953125 C 20.863281 -3.015625 18.492188 -4.335938 16.296875 -5.921875 C 14.097656 -7.503906 12.191406 -9.351562 10.578125 -11.46875 C 8.972656 -13.582031 7.710938 -15.984375 6.796875 -18.671875 C 5.890625 -21.359375 5.4375 -24.328125 5.4375 -27.578125 L 22.28125 -27.578125 C 22.351562 -24.898438 22.816406 -22.601562 23.671875 -20.6875 C 24.523438 -18.769531 25.710938 -17.203125 27.234375 -15.984375 C 28.765625 -14.765625 30.597656 -13.867188 32.734375 -13.296875 C 34.867188 -12.734375 37.222656 -12.453125 39.796875 -12.453125 C 42.066406 -12.453125 44.085938 -12.710938 45.859375 -13.234375 C 47.628906 -13.765625 49.125 -14.5 50.34375 -15.4375 C 51.5625 -16.375 52.492188 -17.503906 53.140625 -18.828125 C 53.796875 -20.148438 54.125 -21.601562 54.125 -23.1875 Z M 54.125 -23.1875 "/></g></g></g><g fill="#5b7cfa" fill-opacity="1"><g transform="translate(149.988532, 122.699279)"><g><path d="M 29.234375 7.625 L 13.421875 7.625 L 46.6875 -88.859375 L 62.5 -88.859375 Z M 29.234375 7.625 "/></g></g></g><g fill="#5b7cfa" fill-opacity="1"><g transform="translate(224.98281, 122.699279)"><g><path d="M 9.828125 -50.890625 L 9.828125 -67.3125 L 64.75 -44.984375 L 64.75 -31.125 L 9.828125 -8.734375 L 9.828125 -25.203125 L 44.796875 -36.921875 L 48.515625 -38.140625 L 44.859375 -39.359375 Z M 9.828125 -50.890625 "/></g></g></g></g></g></svg>